<mxfile host="app.diagrams.net" agent="Mozilla/5.0 (Windows NT 10.0; Win64; x64) AppleWebKit/537.36 (KHTML, like Gecko) Chrome/128.0.0.0 Safari/537.36" version="24.7.10">
  <diagram name="PÃ¡gina-1" id="E6b4N6jzIni9F3t4hAKb">
    <mxGraphModel dx="1434" dy="746" grid="1" gridSize="10" guides="1" tooltips="1" connect="1" arrows="1" fold="1" page="1" pageScale="1" pageWidth="827" pageHeight="1169" math="0" shadow="0">
      <root>
        <mxCell id="0" />
        <mxCell id="1" parent="0" />
        <mxCell id="xOtQciatTyw8spUs43n7-1" value="&lt;h1 style=&quot;font-size: 161px;&quot;&gt;&lt;font style=&quot;font-size: 161px;&quot;&gt;S&lt;/font&gt;&lt;/h1&gt;" style="rounded=0;whiteSpace=wrap;html=1;hachureGap=4;fontFamily=Computer Modern;fontSize=161;strokeColor=none;container=0;" parent="1" vertex="1">
          <mxGeometry x="10" y="214" width="249.5180722891566" height="156" as="geometry" />
        </mxCell>
        <mxCell id="KC3im3dRJgJjoo-SBNaT-9" value="&lt;p style=&quot;text-align: justify; font-size: 15px;&quot;&gt;&lt;font style=&quot;font-size: 15px;&quot;&gt;&lt;span style=&quot;font-size: 15px;&quot;&gt;Advanced bioinformatics and genomics concepts were applied in the development of an independent software for essential genomic analysis metrics, such as vertical and horizontal sequencing depth, ensuring compliance with NGS guidelines.&lt;/span&gt;&lt;/font&gt;&lt;/p&gt;&lt;p style=&quot;text-align: justify; font-size: 15px;&quot;&gt;&lt;span style=&quot;font-size: 15px; background-color: initial;&quot;&gt;The use of advanced technologies like WSL, Anaconda, Conda, Git, GitHub, Streamlit, and Python ensures robust and efficient development. The software features a user-friendly interface, making it accessible to all users, including those without bioinformatics expertise.&lt;/span&gt;&lt;br style=&quot;font-size: 15px;&quot;&gt;&lt;/p&gt;&lt;p style=&quot;text-align: justify; font-size: 15px;&quot;&gt;&lt;span style=&quot;font-size: 15px; background-color: initial;&quot;&gt;Git and GitHub enable code sharing, ensuring traceability and reproducibility, while Anaconda and Conda create an isolated and reproducible environment for managing packages and dependencies.&lt;/span&gt;&lt;br style=&quot;font-size: 15px;&quot;&gt;&lt;/p&gt;" style="rounded=0;html=1;hachureGap=4;fontFamily=Computer Modern;strokeColor=none;container=0;fontSize=15;whiteSpace=wrap;horizontal=1;spacing=0;" vertex="1" parent="1">
          <mxGeometry x="10" y="410" width="249.52" height="400" as="geometry" />
        </mxCell>
        <mxCell id="KC3im3dRJgJjoo-SBNaT-17" value="&lt;h1 style=&quot;font-size: 161px;&quot;&gt;&lt;font style=&quot;font-size: 161px;&quot;&gt;W&lt;/font&gt;&lt;/h1&gt;" style="rounded=0;whiteSpace=wrap;html=1;hachureGap=4;fontFamily=Computer Modern;fontSize=161;strokeColor=none;container=0;" vertex="1" parent="1">
          <mxGeometry x="285.78313253012044" y="214" width="249.5180722891566" height="156" as="geometry" />
        </mxCell>
        <mxCell id="KC3im3dRJgJjoo-SBNaT-20" value="&lt;p style=&quot;text-align: justify; font-size: 15px;&quot;&gt;&lt;span style=&quot;font-size: 15px;&quot;&gt;&lt;font style=&quot;font-size: 15px;&quot;&gt;The requirement for WSL and a Linux environment may limit accessibility for users unfamiliar with these technologies.&lt;/font&gt;&lt;/span&gt;&lt;/p&gt;&lt;p style=&quot;text-align: justify; font-size: 15px;&quot;&gt;&lt;font style=&quot;font-size: 15px;&quot;&gt;&lt;span style=&quot;font-size: 15px; background-color: initial;&quot;&gt;While the graphical interface is intuitive, it may not suffice for advanced users who prefer command-line tools for analysis.&lt;/span&gt;&lt;br style=&quot;font-size: 15px;&quot;&gt;&lt;/font&gt;&lt;/p&gt;&lt;p style=&quot;text-align: justify; font-size: 15px;&quot;&gt;&lt;font style=&quot;font-size: 15px;&quot;&gt;&lt;span style=&quot;font-size: 15px; background-color: initial;&quot;&gt;The initial setup of the development environment involves multiple steps and requires a solid understanding of the tools, which can be a barrier for less experienced users.&lt;/span&gt;&lt;br style=&quot;font-size: 15px;&quot;&gt;&lt;/font&gt;&lt;/p&gt;&lt;p style=&quot;text-align: justify; font-size: 15px;&quot;&gt;&lt;span style=&quot;font-size: 15px; background-color: initial;&quot;&gt;&lt;font style=&quot;font-size: 15px;&quot;&gt;Comparing and validating metrics obtained by the new software with other tools is essential, but ensuring consistent and comparable results can be challenging.&lt;/font&gt;&lt;/span&gt;&lt;br style=&quot;font-size: 15px;&quot;&gt;&lt;/p&gt;" style="rounded=0;html=1;hachureGap=4;fontFamily=Computer Modern;strokeColor=none;container=0;fontSize=15;whiteSpace=wrap;horizontal=1;spacing=0;" vertex="1" parent="1">
          <mxGeometry x="285.78" y="390" width="249.52" height="390" as="geometry" />
        </mxCell>
        <mxCell id="KC3im3dRJgJjoo-SBNaT-22" value="&lt;h1 style=&quot;font-size: 161px;&quot;&gt;&lt;font style=&quot;font-size: 161px;&quot;&gt;O&lt;/font&gt;&lt;/h1&gt;" style="rounded=0;whiteSpace=wrap;html=1;hachureGap=4;fontFamily=Computer Modern;fontSize=161;strokeColor=none;container=0;" vertex="1" parent="1">
          <mxGeometry x="561.5662650602409" y="214" width="249.5180722891566" height="156" as="geometry" />
        </mxCell>
        <mxCell id="KC3im3dRJgJjoo-SBNaT-23" value="" style="endArrow=none;html=1;rounded=0;hachureGap=4;fontFamily=Computer Modern;" edge="1" parent="1">
          <mxGeometry width="50" height="50" relative="1" as="geometry">
            <mxPoint x="824.2168674698794" y="820" as="sourcePoint" />
            <mxPoint x="824" y="320" as="targetPoint" />
          </mxGeometry>
        </mxCell>
        <mxCell id="KC3im3dRJgJjoo-SBNaT-25" value="&lt;p style=&quot;text-align: justify; font-size: 15px;&quot;&gt;&lt;span style=&quot;font-size: 15px;&quot;&gt;&lt;font style=&quot;font-size: 15px;&quot;&gt;The software can be expanded to include other important genomic analysis metrics.&lt;/font&gt;&lt;/span&gt;&lt;/p&gt;&lt;p style=&quot;text-align: justify; font-size: 15px;&quot;&gt;&lt;font style=&quot;font-size: 15px;&quot;&gt;&lt;span style=&quot;font-size: 15px; background-color: initial;&quot;&gt;Unilabs could promote internal use, establishing it as the standard tool for metric analysis.&lt;/span&gt;&lt;br style=&quot;font-size: 15px;&quot;&gt;&lt;/font&gt;&lt;/p&gt;&lt;p style=&quot;text-align: justify; font-size: 15px;&quot;&gt;&lt;font style=&quot;font-size: 15px;&quot;&gt;&lt;span style=&quot;font-size: 15px; background-color: initial;&quot;&gt;Releasing the software as an open-source solution could attract a community of developers and users to contribute to its continuous improvement.&lt;/span&gt;&lt;br style=&quot;font-size: 15px;&quot;&gt;&lt;/font&gt;&lt;/p&gt;&lt;p style=&quot;text-align: justify; font-size: 15px;&quot;&gt;&lt;span style=&quot;font-size: 15px; background-color: initial;&quot;&gt;&lt;font style=&quot;font-size: 15px;&quot;&gt;The rapid evolution of sequencing technologies and data analysis offers opportunities to continuously enhance and update the tool with new advancements and algorithms.&lt;/font&gt;&lt;/span&gt;&lt;br style=&quot;font-size: 15px;&quot;&gt;&lt;/p&gt;" style="rounded=0;html=1;hachureGap=4;fontFamily=Computer Modern;strokeColor=none;container=0;fontSize=15;whiteSpace=wrap;horizontal=1;spacing=0;" vertex="1" parent="1">
          <mxGeometry x="561.57" y="390" width="249.52" height="370" as="geometry" />
        </mxCell>
        <mxCell id="KC3im3dRJgJjoo-SBNaT-27" value="&lt;h1 style=&quot;font-size: 161px;&quot;&gt;&lt;font style=&quot;font-size: 161px;&quot;&gt;T&lt;/font&gt;&lt;/h1&gt;" style="rounded=0;whiteSpace=wrap;html=1;hachureGap=4;fontFamily=Computer Modern;fontSize=161;strokeColor=none;container=0;" vertex="1" parent="1">
          <mxGeometry x="837.3493975903615" y="214" width="249.5180722891566" height="156" as="geometry" />
        </mxCell>
        <mxCell id="KC3im3dRJgJjoo-SBNaT-30" value="&lt;p style=&quot;text-align: justify; font-size: 15px;&quot;&gt;&lt;span style=&quot;font-size: 15px;&quot;&gt;&lt;font style=&quot;font-size: 15px;&quot;&gt;Several established tools and platforms in the market offer similar functionalities, which may hinder the adoption of the new software.&lt;/font&gt;&lt;/span&gt;&lt;/p&gt;&lt;p style=&quot;text-align: justify; font-size: 15px;&quot;&gt;&lt;font style=&quot;font-size: 15px;&quot;&gt;&lt;span style=&quot;font-size: 15px; background-color: initial;&quot;&gt;Competing with robust commercial software that offers extensive support can be challenging.&lt;/span&gt;&lt;br style=&quot;font-size: 15px;&quot;&gt;&lt;/font&gt;&lt;/p&gt;&lt;p style=&quot;text-align: justify; font-size: 15px;&quot;&gt;&lt;font style=&quot;font-size: 15px;&quot;&gt;&lt;span style=&quot;font-size: 15px; background-color: initial;&quot;&gt;The rapid evolution of sequencing technologies and data analysis could render some features obsolete or require frequent updates.&lt;/span&gt;&lt;br style=&quot;font-size: 15px;&quot;&gt;&lt;/font&gt;&lt;/p&gt;&lt;p style=&quot;text-align: justify; font-size: 15px;&quot;&gt;&lt;font style=&quot;font-size: 15px;&quot;&gt;&lt;span style=&quot;font-size: 15px; background-color: initial;&quot;&gt;Dependence on third-party software and libraries that may discontinue or significantly change their APIs presents a risk.&lt;/span&gt;&lt;br style=&quot;font-size: 15px;&quot;&gt;&lt;/font&gt;&lt;/p&gt;&lt;p style=&quot;text-align: justify; font-size: 15px;&quot;&gt;&lt;span style=&quot;font-size: 15px; background-color: initial;&quot;&gt;&lt;font style=&quot;font-size: 15px;&quot;&gt;Increasing regulation around genomic data and genetic testing may impose additional challenges for the use and distribution of the software.&lt;/font&gt;&lt;/span&gt;&lt;br style=&quot;font-size: 15px;&quot;&gt;&lt;/p&gt;" style="rounded=0;html=1;hachureGap=4;fontFamily=Computer Modern;strokeColor=none;container=0;fontSize=15;whiteSpace=wrap;horizontal=1;spacing=0;" vertex="1" parent="1">
          <mxGeometry x="837.35" y="390" width="249.52" height="450" as="geometry" />
        </mxCell>
        <mxCell id="KC3im3dRJgJjoo-SBNaT-42" value="" style="endArrow=none;html=1;rounded=0;hachureGap=4;fontFamily=Computer Modern;" edge="1" parent="1">
          <mxGeometry width="50" height="50" relative="1" as="geometry">
            <mxPoint x="548.433734939759" y="819.2" as="sourcePoint" />
            <mxPoint x="548" y="240" as="targetPoint" />
          </mxGeometry>
        </mxCell>
        <mxCell id="KC3im3dRJgJjoo-SBNaT-43" value="" style="endArrow=none;html=1;rounded=0;hachureGap=4;fontFamily=Computer Modern;" edge="1" parent="1">
          <mxGeometry width="50" height="50" relative="1" as="geometry">
            <mxPoint x="272.65060240963857" y="819.2" as="sourcePoint" />
            <mxPoint x="273" y="240" as="targetPoint" />
          </mxGeometry>
        </mxCell>
        <mxCell id="KC3im3dRJgJjoo-SBNaT-5" value="&lt;span style=&quot;color: rgb(33, 33, 33); text-align: start; background-color: rgb(255, 255, 255); font-size: 25px;&quot;&gt;&lt;font style=&quot;font-size: 25px;&quot;&gt;Strengths&lt;/font&gt;&lt;/span&gt;" style="rounded=0;whiteSpace=wrap;html=1;hachureGap=4;fontFamily=Computer Modern;fontSize=25;strokeColor=none;container=0;" vertex="1" parent="1">
          <mxGeometry x="10" y="352" width="249.5180722891566" height="62.400000000000006" as="geometry" />
        </mxCell>
        <mxCell id="KC3im3dRJgJjoo-SBNaT-19" value="&lt;span style=&quot;color: rgb(33, 33, 33); text-align: start; background-color: rgb(255, 255, 255); font-size: 25px;&quot;&gt;&lt;font style=&quot;font-size: 25px;&quot;&gt;Weaknesses&lt;/font&gt;&lt;/span&gt;" style="rounded=0;whiteSpace=wrap;html=1;hachureGap=4;fontFamily=Computer Modern;fontSize=25;strokeColor=none;container=0;" vertex="1" parent="1">
          <mxGeometry x="285.78313253012044" y="352" width="249.5180722891566" height="62.400000000000006" as="geometry" />
        </mxCell>
        <mxCell id="KC3im3dRJgJjoo-SBNaT-24" value="&lt;span style=&quot;color: rgb(33, 33, 33); text-align: start; background-color: rgb(255, 255, 255); font-size: 25px;&quot;&gt;&lt;font style=&quot;font-size: 25px;&quot;&gt;Opportunities&lt;/font&gt;&lt;/span&gt;" style="rounded=0;whiteSpace=wrap;html=1;hachureGap=4;fontFamily=Computer Modern;fontSize=25;strokeColor=none;container=0;" vertex="1" parent="1">
          <mxGeometry x="561.5662650602409" y="352" width="249.5180722891566" height="62.400000000000006" as="geometry" />
        </mxCell>
        <mxCell id="KC3im3dRJgJjoo-SBNaT-29" value="&lt;span style=&quot;color: rgb(33, 33, 33); text-align: start; background-color: rgb(255, 255, 255); font-size: 25px;&quot;&gt;&lt;font style=&quot;font-size: 25px;&quot;&gt;Threats&lt;/font&gt;&lt;/span&gt;" style="rounded=0;whiteSpace=wrap;html=1;hachureGap=4;fontFamily=Computer Modern;fontSize=25;strokeColor=none;container=0;" vertex="1" parent="1">
          <mxGeometry x="837.3493975903615" y="352" width="249.5180722891566" height="62.400000000000006" as="geometry" />
        </mxCell>
      </root>
    </mxGraphModel>
  </diagram>
</mxfile>
